<svg xmlns="http://www.w3.org/2000/svg" xmlns:xlink="http://www.w3.org/1999/xlink" viewBox="0 0 3291.8 1557.6">
<linearGradient id="pre-gradient" gradientUnits="userSpaceOnUse" x1="937.835" y1="-1339.6763" x2="795.1705" y2="-262.4255" gradientTransform="matrix(-0.9848 0.1736 0.1736 0.9848 2524.0889 1191.1726)">
<stop offset="0" stop-color="#CBD5EE"/>
<stop offset="0.8639" stop-color="#546DB1"/>
<stop offset="1" stop-color="#526BB0"/>
</linearGradient>
<path id="pre-shape" fill="url(#pre-gradient)" d="M2445.2,1464.4c0,0-295.3,94.7-560.2-66.6c-264.9-161.3-241.9,116.5-862.2,66.7 c-620.3-49.8-542.5,56.4-751.1,93.2l-62.2-209.3L0,495.6c0,0,221.9,254.2,334.2,197.3C446.5,636,481.6,330.3,949.8,282.7 C1417.9,235,1510.3,56,1792.5,6.2s484.6,213.5,512.5,252.2c27.9,38.7,986.8,871.3,986.8,871.3L2445.2,1464.4z"/>
<path id="pre-shape-morph" d="M2602.6,1337.3C2336.08,1393.85,2257.39,1500.11,2048,1466c-191.85-31.28-224.79-136.67-462.64-159.32-169.51-16.14-307,22.71-334,30.64-200.91,59-204.91,142-337,156.25-171.56,18.57-230.84-114.24-444.26-165.44-102.89-24.69-257.93-34.33-470.17,49V495.6S221.9,749.8,334.2,692.9,481.6,330.3,949.8,282.7,1510.3,56,1792.5,6.2c178.68-31.53,333.73,95.3,512.5,252.2,230.16,202,587.18,552.3,986.8,1109.54C2987.54,1285.92,2757.6,1304.41,2602.6,1337.3Z" style="display:none;"/>
</svg>