<svg xmlns="http://www.w3.org/2000/svg" viewBox="0 0 1203.3 1065.4">
                <g transform="translate(.004 -.002)">
                  
                  <linearGradient id="aba" gradientUnits="userSpaceOnUse" x1="310.997" y1="944.252">
                    <stop offset="0" stop-color="#526bb0"/>
                    <stop offset=".5" stop-color="#cbd5ee"/>
                    <stop offset="1" stop-color="#fff"/>
                  </linearGradient>
                  <path class="js-product-preview-bubble" d="M474.3132647949043 66.00531157804863 C 565.6949127227329 39.65703431675763 687.0988413367885 37.314884212726746 774.7227796977069 71.0878754978482 862.3467180586252 104.86086678296965 947.4481987126189 188.09854192360982 1000.0568949604144 268.64325928877736 1052.66559120821 349.18797665394493 1094.3547641365328 460.3092266618727 1090.3749571844796 554.3561796888534 1086.3951502324264 648.4031327158342 1036.6319915782808 758.4431198470999 976.1780532480957 832.9249774506619 915.7241149179106 907.406835054224 819.8956342530071 974.126627911517 727.6513272033693 1001.2473253102255 635.4070201537315 1028.3680227089342 510.0489645846528 1031.0324543912805 422.7122109502689 995.6491618429134 335.375457315885 960.2658692945463 256.84636082887596 870.6665020698184 203.63080539706598 788.9475700200232 150.41524996525604 707.2286379702281 99.61853057046426 598.6305747032138 103.4188783594092 505.3355695441423 107.21922614835415 412.04056438507075 164.6171610581532 302.3992487266098 226.4328921307357 229.1775390655942 288.24862320331823 155.9558294045786 382.9316168670758 92.35358883933964 474.3132647949043 66.00531157804863z" fill="url(#aba)"/>
                </g>
                <g transform="translate(.004 -.002)">
                  
                  <linearGradient id="bab" gradientUnits="userSpaceOnUse" x2="312.06" y2="942.165">
                    <stop offset="0" stop-color="#526bb0"/>
                    <stop offset=".5" stop-color="#cbd5ee"/>
                    <stop offset="1" stop-color="#fff"/>
                  </linearGradient>
                  <path class="js-product-preview-bubble" d="M1036.2359005700712 656.7976794719084 C 1006.3584194300635 747.0733686413005 959.6091658885728 848.2355869850412 889.2798767305876 903.0341327606739 818.9505875726024 957.8326785363065 709.28120085748 978.9044475173308 614.2601656221599 985.5889541257039 519.2391303868397 992.273460734077 399.8718989450641 990.8790927310977 319.15366531866664 943.1411724109123 238.43543169226916 895.4032520907269 161.9217649171733 790.9163623104437 129.95076386377514 699.1614322045914 97.97976281037698 607.4065020987391 96.47510436180092 482.0434788657511 127.32765899827768 392.61159177579896 158.18021363475444 303.1797046858468 238.87162307146474 222.23475606730983 315.0660916826357 162.57010966487832 391.2605602938067 102.9054632624468 490.87804542401045 41.24152638723644 584.4944706653035 34.62371336120986 678.1108959065966 28.005900335183277 796.0895943128392 68.4038507782002 876.7646431303942 122.86323150871883 957.4396919479493 177.32261223923746 1041.966220664021 272.39092308379 1068.544763570634 361.3799977443216 1095.1233064772468 450.36907240485317 1066.113381710079 566.5219903025163 1036.2359005700712 656.7976794719084z" fill="url(#bab)"/>
                </g>
              </svg>