<svg version="1.1" id="Livello_1" xmlns="http://www.w3.org/2000/svg" xmlns:xlink="http://www.w3.org/1999/xlink" height="35px" viewBox="0 0 65.5 48.7" style="enable-background:new 0 0 65.5 48.7;" xml:space="preserve">
<style type="text/css">
	.st0{fill:#526BB0;stroke:#526BB0;stroke-width:0.5;}
	.st1{fill:#526BB0;}
</style>
<g id="Group_486" transform="translate(-1118.405 -4234.45)">
	<g id="smoke" transform="translate(1118.68 4240.957)">
		<path id="Path_186" class="st0" d="M7.4,14.2c-0.5-3,1.6-5.8,4.4-6.3c1.9-0.4,3.9,0.4,5.1,1.9l-0.5,0.5c-0.7-1.1-1.9-1.6-3.2-1.8&#10;&#9;&#9;&#9;c-2.5-0.4-4.7,1.6-5.1,4.2c0,0.4,0,0.9,0,1.2L7.4,14.2z"/>
		<path id="Path_187" class="st0" d="M25.1,13.9l-0.7-0.4c1.1-1.9,0.5-4.4-1.4-5.4c-1.2-0.7-2.6-0.7-3.9,0l-0.4-0.7&#10;&#9;&#9;&#9;c2.3-1.2,5.1-0.4,6.3,1.9C26,10.7,26,12.5,25.1,13.9z"/>
		<path id="Path_188" class="st0" d="M30,20.9l-0.2-0.7c2.3-0.7,3.7-3.2,3-5.4c-0.4-1.1-1.1-2.1-2.1-2.6c-1.1-0.5-2.3-0.7-3.3-0.4&#10;&#9;&#9;&#9;h-0.2l-0.2-0.7c0,0,0.2,0,0.4-0.2c1.2-0.4,2.6-0.2,3.9,0.4c1.2,0.7,2.1,1.8,2.5,3c0.4,1.2,0.2,2.6-0.4,3.9&#10;&#9;&#9;&#9;C32.5,19.5,31.4,20.4,30,20.9z"/>
		<path id="Path_189" class="st0" d="M29,31.2c-0.2,0-0.5,0-0.7,0v-0.7c0.2,0,0.5,0,0.7,0c3,0,5.6-2.5,5.4-5.6&#10;&#9;&#9;&#9;c0-1.4-0.5-2.6-1.4-3.5l0.7-0.5c1.1,1.4,1.8,3.2,1.4,4.7C34.8,28.8,32.1,31.2,29,31.2L29,31.2z"/>
		<path id="Path_190" class="st0" d="M22.9,36.3v-0.7c2.1,0,3.7-1.8,3.7-3.7c0-0.2,0-0.5,0-0.7l0.7-0.2c0.2,1.2-0.2,2.6-1.1,3.7&#10;&#9;&#9;&#9;S24.1,36.3,22.9,36.3z"/>
		<path id="Path_191" class="st0" d="M2.9,24.2C2,22.6,2,20.7,2.7,19c1.2-2.3,3.9-3.7,6.3-3v0.7c-2.8-0.7-5.4,1.1-6,3.9&#10;&#9;&#9;&#9;c-0.2,1.2,0,2.3,0.5,3.3L2.9,24.2z"/>
		<path id="Path_192" class="st0" d="M13.7,24.4H13c0.2-1.8,1.8-3.2,3.5-3c0.9,0,1.6,0.5,2.1,1.1l-0.5,0.4c-0.9-1.1-2.5-1.1-3.5-0.2&#10;&#9;&#9;&#9;C14.1,23,13.9,23.7,13.7,24.4L13.7,24.4z"/>
		<path id="Path_193" class="st0" d="M7.6,30c-2.1-1.1-3-3.7-1.8-5.8c0.7-1.4,2.3-2.3,3.9-2.3v0.7c-1.8,0-3.2,1.1-3.5,2.8&#10;&#9;&#9;&#9;c-0.4,1.6,0.4,3.3,1.8,4L7.6,30z"/>
		<path id="Path_194" class="st0" d="M13.2,38.1c-2.5,0-4.6-2.1-4.4-4.6c0-2.5,1.9-4.4,4.4-4.4v0.7c-2.1,0-3.7,1.8-3.7,3.9&#10;&#9;&#9;&#9;s1.8,3.7,3.7,3.7V38.1z"/>
		<path id="Path_195" class="st0" d="M15.7,38.9c-1.2-1.2-1.2-3.3,0-4.6l0,0l0.5,0.5c-1.1,1.1-1.1,2.6,0,3.7L15.7,38.9z"/>
		<path id="Path_196" class="st0" d="M20.2,41l-0.5-0.5c1.1-1.1,1.1-2.6,0-3.7l0.5-0.5C21.6,37.7,21.6,39.8,20.2,41&#10;&#9;&#9;&#9;C20.4,41,20.2,41,20.2,41L20.2,41z"/>
		<path id="Path_197" class="st0" d="M23.6,19.1h-0.7c0-0.9-0.4-1.9-1.2-2.5c-0.7-0.5-1.9-0.7-2.8-0.2l-0.4-0.7&#10;&#9;&#9;&#9;c1.8-0.9,3.9-0.2,4.7,1.6C23.6,17.9,23.6,18.6,23.6,19.1L23.6,19.1z"/>
		<path id="Path_198" class="st0" d="M25.5,30.2L25,29.8c0.5-1.2,0-2.8-1.2-3.3c-0.7-0.4-1.6-0.4-2.3,0.2l-0.5-0.5&#10;&#9;&#9;&#9;c1.6-0.9,3.5-0.5,4.4,1.1C25.8,28.1,26,29.1,25.5,30.2L25.5,30.2z"/>
	</g>
	<path id="Path_227" class="st1" d="M1172.2,4271.9c-3.7,1.4-7.4,3.7-11.2,1.6c-1.6-0.9-2.8-2.3-3.2-4c0-0.7,0-1.6,0.4-2.3&#10;&#9;&#9;c0.4-0.9,0.4-1.9,0.2-3c-0.2-0.9-0.9-1.4-1.6-1.9c-0.4-0.2-0.7-0.5-0.9-0.9c0-0.4,0-0.7,0.2-1.1c0.9-1.1,1.8-2.1,2.8-3l-1.6-0.5&#10;&#9;&#9;c-0.2,0-0.4-0.2-0.5-0.2c-0.4-0.2-0.5-0.2-0.9-0.4c-0.4-0.2-0.9-0.5-1.1-1.1c0-0.4,0.2-0.7,0.4-0.9c0.2-0.4,0.4-0.5,0.5-0.7v-0.2&#10;&#9;&#9;c1.1-1.2,1.4-2.8,1.2-4.6c-0.4-1.6-1.2-2.8-2.6-3.5c-0.7-0.5-1.4-1.1-1.8-1.9c-0.5-1.2,0.2-2.3,2.1-3.9c1.4-1.1,2.6-2.3,3.5-3.7&#10;&#9;&#9;h-2.3c-0.7,0.9-1.4,1.6-2.3,2.3c-1.1,0.9-4,3-2.8,6c0.5,1.1,1.4,1.9,2.5,2.6c1.1,0.9,1.8,1.4,1.9,2.3c0.2,1.1-0.2,2.3-0.9,3.2v0.2&#10;&#9;&#9;c-0.7,0.7-1.1,1.6-1.2,2.6c0,0.7,0.2,1.4,0.7,1.8c0.7,0.5,1.6,0.5,2.5,0.9c-0.9,0.7-1.8,1.6-2.1,2.6c-0.2,0.7-0.2,1.6,0.4,2.1&#10;&#9;&#9;c0.4,0.5,0.7,0.9,1.2,1.2c0.5,0.4,0.7,0.5,0.9,0.9c0.2,0.7,0,1.4-0.2,2.1c-0.4,0.9-0.4,1.9-0.4,2.8c0.5,2.3,1.9,4.4,4.2,5.4&#10;&#9;&#9;c2.8,1.4,6.1,1.4,8.9,0c0.9-0.4,1.8-0.9,2.6-1.2c2.6-1.1,5.3-1.9,8.1-2.5v-1.8C1177.1,4270.2,1174.7,4270.9,1172.2,4271.9z"/>
</g>
</svg>