<svg xmlns="http://www.w3.org/2000/svg" viewBox="0 0 14.3 28" width="20px" height="35px">
                    <path fill="none" stroke="#526BB0" d="M8.9 22.5c-.1-.1-.3-.2-.5-.2-3.7-.2-5.9-1.1-6.9-2.9-1.1-1.9.3-3.2 2.3-5.1.7-.7 1.6-1.5 2.4-2.5 1.8-2 2.6-3 5-6.5.7-.9.6-1.4.4-3.1-.1-.4-.1-.9-.2-1.5 0-.1-.2-.3-.3-.2-.2 0-.3.1-.3.3.1.6.1 1 .2 1.5.2 1.8.3 2-.3 2.8-2.4 3.4-3.2 4.4-5 6.4-.8.9-1.6 1.7-2.3 2.4-1 1-1.9 1.9-2.4 2.8-.6 1-.5 1.9.1 3 1.2 2 3.5 3 7.4 3.2.1.1.3.4.1 1.7-.1.8-.3 1.7-.5 2.6 0 .1.1.3.2.3h.1c.1 0 .3-.1.3-.2.3-.9.5-1.9.6-2.7.1-.5.1-.9.1-1.2-.2-.4-.3-.7-.5-.9z"/>
                    <path fill="none" stroke="#526BB0" d="M9.9 21.4c-.6-.1-.6-.2-.6-.2 0-.1.1-.1.1-.1.1 0 .2 0 .4.1s.4.2.7.4c-.2-.1-.4-.2-.6-.2zm3.8-.9c-.1-.3-.2-.6-.4-.8-.1-.1-.2-.1-.2 0-.1.1-.1.2 0 .2.4.4.4 1 .3 1.3-.2.4-.6.7-1.2.7-.5-.1-1.1-.4-1.6-.6-.6-.3-1-.6-1.3-.4l-.3.3v.3c.1.2.4.3.9.3.4.1.8.1 1 .1h.2c.3.2.7.3 1 .3h.2c.3 0 .5-.1.7-.2.2-.1.4-.4.6-.6s.2-.6.1-.9z"/>
                  </svg>