<svg xmlns="http://www.w3.org/2000/svg" viewBox="0 0 1203.3 1065.4">
                <g transform="translate(.004 -.002)">
                  
                  <linearGradient id="aba" gradientUnits="userSpaceOnUse" x1="310.997" y1="944.252">
                    <stop offset="0" stop-color="#526bb0"/>
                    <stop offset=".5" stop-color="#cbd5ee"/>
                    <stop offset="1" stop-color="#fff"/>
                  </linearGradient>
                  <path class="js-product-preview-bubble" d="M343.70761625346023 143.79060565340336 C 425.1736431763861 90.83815346107866 530.1527260939937 34.13555288379861 620.8914064396771 37.98154697049097 711.6300867853605 41.827541057183325 812.5386088211419 106.89721980602721 888.1396983275605 166.8665701735575 963.7407878339791 226.8359205410878 1049.1096368824249 309.92814738044996 1074.4979434781885 397.7976491756727 1099.8862500739522 485.6671509708954 1073.4813617702384 602.6247830354441 1040.469537902142 694.0835809448939 1007.4577140340456 785.5423788543437 953.3684446470523 890.7652567783882 876.4270002696096 946.5504366323712 799.4855558921669 1002.3356164863542 676.6877818947787 1032.9431808303918 578.8208716374859 1028.7946600687915 480.95396138019305 1024.646139307191 365.87463229065474 982.4526797666695 289.22553872585263 921.6593120627688 212.57644516105051 860.8659443588681 145.11469255262838 758.3616291684423 118.9263102486732 664.0344538453874 92.73792794471804 569.7072785223324 94.63169390132376 442.40356815643656 132.0952449021216 355.6962601244392 169.55879590291946 268.9889520924419 262.24158933053434 196.74305784572806 343.70761625346023 143.79060565340336z" fill="url(#aba)"/>
                </g>
                <g transform="translate(.004 -.002)">
                  
                  <linearGradient id="bab" gradientUnits="userSpaceOnUse" x2="312.06" y2="942.165">
                    <stop offset="0" stop-color="#526bb0"/>
                    <stop offset=".5" stop-color="#cbd5ee"/>
                    <stop offset="1" stop-color="#fff"/>
                  </linearGradient>
                  <path class="js-product-preview-bubble" d="M951.3093696679043 885.0739978633858 C 881.4821799321837 951.5994197151708 768.1143578620184 998.9108862642363 673.3774655589449 1009.8236166229699 578.6405732558713 1020.7363469817035 466.7693775988474 994.4922746230416 382.8880158494628 950.5503800157871 299.0066541000782 906.6084854085327 210.00725315133784 828.7336694106664 170.08929506263718 746.1722489794437 130.17133697393652 663.610828548221 128.0244869963408 548.1098369217781 143.38026731725884 455.18185742845117 158.73604763817687 362.2538779351242 197.95600506758092 253.52716845772665 262.2239769881454 188.60437201948199 326.4919489087099 123.68157558123734 437.47205966781905 76.9677405110292 528.9880988406456 65.64507879898326 620.5041380134722 54.32241708693732 730.5231224873481 77.95200301256764 811.320212025105 120.66840174720635 892.1173015628618 163.38480048184505 966.9339040758259 240.27635724597334 1013.7706360671865 321.9434712068155 1060.607368058547 403.61058516765763 1102.7508150398153 516.8159977361643 1092.3406039732683 610.6710855122593 1081.9303929067214 704.5261732883544 1021.1365594036249 818.5485760116007 951.3093696679043 885.0739978633858z" fill="url(#bab)"/>
                </g>
              </svg>