<svg class="js-shape-arrow" xmlns="http://www.w3.org/2000/svg" width="230" height="300" viewBox="0 0 230 300" style="opacity: 1; transform: matrix(1, 0, 0, 1, 0, 0);">
                      <path fill="#FFF" fill-rule="evenodd" d="M142.1567,317.6814 C142.2557,319.2704 142.2817,320.9574 142.3807,322.5454 L138.2267,322.1064 C138.1277,320.5184 138.1007,318.8294 138.0027,317.2424 L142.1567,317.6814 Z M317.6865,40.8631 L319.7225,44.4661 C316.8015,45.5291 313.9265,46.7771 311.0515,48.0241 L308.8995,44.3381 C311.7025,43.1881 314.6945,42.0261 317.6865,40.8631 Z M300.1295,48.2791 L302.3545,51.8681 C299.5965,53.2001 296.6495,54.5481 294.0085,55.9661 L291.5945,52.3911 C294.4245,50.9601 297.3715,49.6121 300.1295,48.2791 Z M283.4105,56.7591 L285.8965,60.2331 C283.1835,61.7511 280.4705,63.2681 277.9465,64.7711 L275.3885,61.3961 C277.9845,59.7941 280.6975,58.2761 283.4105,56.7591 Z M267.4115,66.2171 L270.0415,69.4931 C267.4465,71.0961 264.8955,72.8831 262.4165,74.5701 L259.6695,71.2091 C262.2655,69.6061 264.9335,67.9051 267.4115,66.2171 Z M252.2505,76.7391 L255.0705,80.0011 C252.7085,81.7741 250.2755,83.6451 247.8415,85.5171 L244.9495,82.3541 C247.2665,80.3981 249.7005,78.5261 252.2505,76.7391 Z M237.7655,88.0551 L240.7295,91.1191 C238.4135,93.0761 236.0965,95.0331 233.8975,97.0751 L230.7445,94.0261 C233.1775,92.1541 235.4495,90.0121 237.7655,88.0551 Z M224.1905,100.3371 L227.4155,103.2861 C225.2165,105.3281 223.0615,107.5541 220.9795,109.6811 L217.7545,106.7311 C219.8365,104.6041 222.0365,102.5621 224.1905,100.3371 Z M211.4085,113.4961 L214.7055,116.3461 C212.7405,118.5591 210.7035,120.8711 208.7375,123.0831 L205.3685,120.3311 C207.4055,118.0201 209.4425,115.7081 211.4085,113.4961 Z M199.7515,127.3231 L203.1935,129.9751 C201.3455,132.2721 199.4255,134.6691 197.6945,137.0511 L194.1805,134.4991 C195.9115,132.1161 197.8325,129.7191 199.7515,127.3231 Z M192.3575,144.3971 C190.6265,146.7801 188.9405,149.3461 187.3265,151.8141 L183.7405,149.3601 C185.4265,146.7941 187.0405,144.3261 188.8435,141.8441 L192.3575,144.3971 Z M182.4575,159.5001 C180.9615,162.0521 179.3925,164.7051 177.8955,167.2581 L174.1655,165.0031 C175.6625,162.4501 177.1145,159.7131 178.7995,157.1451 L182.4575,159.5001 Z M173.6855,175.2701 C172.3055,177.9071 170.9255,180.5461 169.5915,183.3681 L165.7165,181.3111 C166.9795,178.5881 168.4315,175.8501 169.8105,173.2141 L173.6855,175.2701 Z M165.8045,191.5361 C164.5415,194.2591 163.3965,197.0671 162.2505,199.8751 L158.4215,198.0031 C159.5665,195.1941 160.7125,192.3861 162.0465,189.5641 L165.8045,191.5361 Z M159.0045,208.2841 C157.9765,211.1771 156.9485,214.0701 155.9925,216.8641 L152.0185,215.1901 C153.0465,212.2981 153.9575,209.3191 155.1035,206.5111 L159.0045,208.2841 Z M153.4035,225.6001 C152.5645,228.4791 151.7705,231.5421 150.9315,234.4211 L147.0025,232.9311 C147.7245,229.9671 148.6355,226.9891 149.5465,224.0111 L153.4035,225.6001 Z M148.7665,243.3131 C148.0435,246.2761 147.4395,249.3261 146.9075,252.2751 L142.8335,250.9851 C143.4385,247.9351 144.0435,244.8861 144.7655,241.9231 L148.7665,243.3131 Z M145.2095,261.5081 C144.7945,264.5431 144.3075,267.6761 143.8915,270.7121 L139.7915,269.7051 C140.2075,266.6701 140.5775,263.4501 141.0645,260.3161 L145.2095,261.5081 Z M143.0685,279.9721 C142.7705,283.0921 142.5895,286.2981 142.3635,289.3181 L138.3085,288.4951 C138.4175,285.3891 138.7875,282.1711 138.9685,278.9661 L143.0685,279.9721 Z M141.9635,298.7351 C141.8545,301.8411 141.8635,305.0321 141.8715,308.2221 L137.7895,307.6831 C137.7805,304.4931 137.7725,301.3011 137.8815,298.1961 L141.9635,298.7351 Z M331.24145,36 C329.628698,36.4959562 328.132899,37.0768782 326.6361,37.6588 L328.5991,41.3598 C330.096067,40.7788129 331.637031,40.3818177 333.133,39.8008388 L333.133,41.3598 L326.6361,41.3598 L326.6361,36 L331.24145,36 Z M110.29,282.3933 L106.898,284.0963 L104,279.7383 L107.392,278.0353 L110.29,282.3933 Z M116.1293,291.1883 L122.0473,300.0393 L118.6943,301.6983 L112.7763,292.8483 L116.1293,291.1883 Z M127.9653,308.8883 L133.8833,317.7383 L130.5313,319.3973 L124.6133,310.5473 L127.9653,308.8883 Z M142.0908,326.8855 L145.4158,329.4525 L140.9708,335.3235 L136.2598,328.2615 L139.6848,326.5025 L140.8918,328.2895 L142.0908,326.8855 Z M164.3129,297.5301 L167.7549,300.1821 L162.2289,307.5431 L158.7869,304.8901 L164.3129,297.5301 Z M153.1439,312.1651 L156.5849,314.8171 L151.0589,322.1771 L147.6169,319.5251 L153.1439,312.1651 Z M176.0776,289.1355 L173.2566,292.8475 L169.7826,290.2405 L172.6036,286.5285 L176.0776,289.1355 Z" transform="translate(-104 -36)"/>
                    </svg>