<svg xmlns="http://www.w3.org/2000/svg" viewBox="0 0 13.114 13.114">
                  <path fill="#084d90" d="M10.054 2.568a.374.374 0 0 0 .063-.108.337.337 0 0 0 .012-.036.4.4 0 0 0 .017-.095.334.334 0 0 0 0-.036v-.018a.413.413 0 0 0-.022-.109v-.01a.387.387 0 0 0-.058-.1s0-.01-.008-.014L8.424.112a.3.3 0 0 0-.459-.005.415.415 0 0 0-.005.528l.882 1.039a8.5 8.5 0 0 0-2.614.114A7.412 7.412 0 0 0 .06 9.835a.342.342 0 0 0 .32.316.307.307 0 0 0 .051 0A.371.371 0 0 0 .7 9.719a6.683 6.683 0 0 1 5.638-7.194 7.992 7.992 0 0 1 2.556-.091l-1.36.808a.4.4 0 0 0-.14.5.305.305 0 0 0 .437.161l2.145-1.269a.344.344 0 0 0 .078-.065z" transform="rotate(159 5.679 5.954)"/>
                </svg>