<svg xmlns="http://www.w3.org/2000/svg" viewBox="0 0 1203.3 1065.4">
                <g transform="translate(.004 -.002)">
                  
                  <linearGradient id="aba" gradientUnits="userSpaceOnUse" x1="310.997" y1="944.252">
                    <stop offset="0" stop-color="#526bb0"/>
                    <stop offset=".5" stop-color="#cbd5ee"/>
                    <stop offset="1" stop-color="#fff"/>
                  </linearGradient>
                  <path class="js-product-preview-bubble" d="M928.4638986022755 906.1960577970982 C 856.8209085353353 970.6654184287356 741.8888144853397 1016.4532499292794 644.4137375082228 1025.2226197795253 546.9386605311058 1033.9919896297713 425.54681554764187 1009.5210000835257 343.61343673957396 958.8122768985737 261.68005793150604 908.1035537136217 186.8562806950852 809.9875587362535 152.81346465981517 720.9702806698137 118.77064862454515 631.953002603374 118.35978208811729 517.850893376353 139.35654052795383 424.70860849993545 160.35329896779038 331.56632362351786 209.3946281845051 226.79550387670474 278.79401529883444 162.11657141130826 348.19340241316377 97.43763894591179 460.61872414445816 44.89772123785946 555.7528632139299 36.63501370755659 650.8870022834017 28.37230617725372 772.6111683264866 60.04101436927286 849.5988497156651 112.54032622949106 926.5865311048436 165.03963808970926 980.2334801833014 263.98652990883085 1017.6789515490012 351.6308848688658 1055.124422914701 439.27523982890074 1089.1408534009852 545.9789271683287 1074.2716779098641 638.4064559897008 1059.402502418743 730.8339848110729 1000.1068886692158 841.7266971654608 928.4638986022755 906.1960577970982z" fill="url(#aba)"/>
                </g>
                <g transform="translate(.004 -.002)">
                  
                  <linearGradient id="bab" gradientUnits="userSpaceOnUse" x2="312.06" y2="942.165">
                    <stop offset="0" stop-color="#526bb0"/>
                    <stop offset=".5" stop-color="#cbd5ee"/>
                    <stop offset="1" stop-color="#fff"/>
                  </linearGradient>
                  <path class="js-product-preview-bubble" d="M1068.0992491953643 363.00400746935685 C 1096.3064893369396 448.2550281789712 1062.7684781239159 567.5243111645044 1032.230484740899 656.9334363431669 1001.6924913578822 746.3425615218295 954.6088277068046 839.9581461879669 884.871288897263 899.4587585413318 815.1337500877213 958.9593708946967 707.671224542743 1007.6800516365955 613.8052518836489 1013.9371104633565 519.9392792245549 1020.1941692901174 400.375852465955 990.4015075640069 321.67545294269894 937.0011115018975 242.97505341944287 883.6007154397881 167.43480567459423 782.5769684377829 141.60285474411242 693.5347340907003 115.77090381363061 604.4924997436178 136.21023478153685 489.5664195283125 166.68374735980805 402.7477054194024 197.15725993807925 315.9289913104923 254.48985232007112 230.82275555665234 324.44393021373963 172.62244943723974 394.39800810740815 114.42214331782714 496.65102910886793 58.07839159488665 586.4082147218191 53.54586870292684 676.1654003347704 49.01334581096703 782.7052048125229 93.85095562440921 862.9870438914471 145.42731208548088 943.2688829703714 197.00366854655255 1039.892009053789 277.7529867597425 1068.0992491953643 363.00400746935685z" fill="url(#bab)"/>
                </g>
              </svg>