<svg xmlns="http://www.w3.org/2000/svg" viewBox="0 0 1203.3 1065.4">
                <g transform="translate(.004 -.002)">
                  
                  <linearGradient id="aba" gradientUnits="userSpaceOnUse" x1="310.997" y1="944.252">
                    <stop offset="0" stop-color="#526bb0"/>
                    <stop offset=".5" stop-color="#cbd5ee"/>
                    <stop offset="1" stop-color="#fff"/>
                  </linearGradient>
                  <path class="js-product-preview-bubble" d="M1039.748327257255 642.3033594282189 C 1015.5127065642001 737.2003515700366 987.3937972763458 855.0569866971335 919.1377605104377 914.7590415488168 850.8817237445296 974.4610964005 724.5759411245342 999.5765442414106 630.212106661806 1000.515688538318 535.8482721990779 1001.4548328352255 429.3172505331629 970.4662224287471 352.9547537340691 920.3939073302613 276.59225693497524 870.3215922317755 211.4884069369373 785.7376656278924 172.03712586724316 700.0817979474033 132.58584479754902 614.4259302669142 97.23101744263148 497.8729995483915 116.24706731590425 406.45870124732653 135.26311718917702 315.0444029462616 210.79852912931642 213.40014250989478 286.13342510687977 151.5960081410136 361.4683210844431 89.79187377213245 471.4076170735046 42.947429782255796 568.2564431812843 35.63389503403958 665.105269289064 28.320360285823366 784.5105415056446 56.090934041071186 867.2263817535583 107.71479965171632 949.9422220014719 159.33866526236145 1035.7978270848168 256.27899540182665 1064.5514846687663 345.3770886979104 1093.3051422527158 434.4751819939941 1063.9839479503096 547.4063672864012 1039.748327257255 642.3033594282189z" fill="url(#aba)"/>
                </g>
                <g transform="translate(.004 -.002)">
                 
                  <linearGradient id="bab" gradientUnits="userSpaceOnUse" x2="312.06" y2="942.165">
                    <stop offset="0" stop-color="#526bb0"/>
                    <stop offset=".5" stop-color="#cbd5ee"/>
                    <stop offset="1" stop-color="#fff"/>
                  </linearGradient>
                  <path class="js-product-preview-bubble" d="M273.0085477459945 863.561085181367 C 202.74096645456893 797.1294051425497 123.41811810303842 703.9591469249871 107.00293480885847 613.1171762762237 90.58775151467852 522.2752056274604 129.52303310455753 403.55644321632724 174.51744798091477 318.5092612887873 219.511862857272 233.46207936124733 293.8386708292668 150.01853066719892 376.96942406700185 102.83408471098397 460.1001773047369 55.64963875476902 579.3514330339895 22.127788632781325 673.301967407325 35.40258555149759 767.2525017806606 48.67738247021385 875.2193664242878 113.14483398558437 940.6726303070151 182.48286622328155 1006.1258941897423 251.82089846097873 1050.597690532893 357.6221517522114 1066.0215507036883 451.43077897768063 1081.4454108744835 545.2394062031499 1072.9553022301056 659.591771891027 1033.215791331787 745.334629576097 993.4762804334682 831.077487261167 911.6857134428383 921.4924872659288 827.5844853137758 965.8879250881007 743.4832571847132 1010.2833629102726 621.0377454853756 1028.761729826917 528.608422557412 1011.7072565091281 436.1790996294485 994.6527831913392 343.2761290374201 929.9927652201844 273.0085477459945 863.561085181367z" fill="url(#bab)"/>
                </g>
              </svg>