<svg xmlns="http://www.w3.org/2000/svg" viewBox="0 0 99.7 48.7">
                      <g id="Group_315" transform="translate(-1079.229 -6074.002)">
                        <g id="baby-girl" transform="translate(1079.23 6076.942)">
                          <g id="Group_305" transform="translate(0 9.593)">
                            <g id="Group_304">
                              <path id="Path_216" fill="#526bb0" d="M24.9 34.6c-9.3 0-17.4-6.1-19.6-14.6-3 0-5.4-2.5-5.4-5.5s2.5-5.4 5.5-5.4h.5c1.4-3.6 3.9-6.7 7.1-9 .3-.2.8-.2 1.1.2.2.3.2.8-.2 1.1-3.1 2.2-5.5 5.2-6.7 8.8-.1.3-.4.5-.7.5h-1c-2.2 0-3.9 1.7-3.9 3.9s1.7 3.9 3.9 3.9H6c.4 0 .7.2.7.6 1.8 8.1 9.5 14 18.2 14s16.5-5.9 18.2-14c.1-.3.4-.6.7-.6h.5c2.2 0 3.9-1.8 3.9-3.9 0-2.2-1.8-3.9-3.9-3.9h-1c-.3 0-.6-.2-.7-.5-1.2-3.6-3.5-6.6-6.6-8.8-.3-.2-.4-.7-.2-1.1.2-.3.7-.4 1-.2 3.2 2.2 5.7 5.4 7 9h.5c3 0 5.4 2.4 5.5 5.4S47.5 20 44.5 20c-2.2 8.5-10.3 14.6-19.6 14.6z"/>
                              <g id="Group_302" transform="translate(29.389 15.7)">
                                <ellipse id="Ellipse_35" fill="#526bb0" cx="1.9" cy="1.8" rx="1.8" ry="1.8"/>
                              </g>
                              <g id="Group_303" transform="translate(17.443 15.7)">
                                <ellipse id="Ellipse_36" fill="#526bb0" cx="1.9" cy="1.8" rx="1.8" ry="1.8"/>
                              </g>
                              <path id="Path_217" fill="#526bb0" d="M24.9 27.4c-1.9 0-3.7-.5-5.3-1.5l-.3-.2c-.4-.2-.5-.7-.3-1 .2-.4.7-.5 1-.3l.3.2c2.8 1.7 6.3 1.7 9.1 0l.3-.2c.4-.2.8-.1 1 .2s.1.8-.2 1l-.3.2c-1.5 1.1-3.4 1.6-5.3 1.6z"/>
                            </g>
                          </g>
                          <g id="Group_306" transform="translate(12.67)">
                            <path id="Path_218" fill="#526bb0" d="M12.3 10.4c-2 0-3.6-1.6-3.6-3.6s1.6-3.6 3.6-3.6 3.6 1.6 3.6 3.6-1.7 3.6-3.6 3.6zm0-5.7c-1.1 0-2.1.9-2.1 2.1s.9 2.1 2.1 2.1c1.1 0 2.1-.9 2.1-2.1-.1-1.2-1-2.1-2.1-2.1z"/>
                            <path id="Path_219" fill="#526bb0" d="M20.9 13.6c-.5 0-.9-.1-1.3-.2l-7.6-3c-.4-.1-.6-.6-.4-1 .1-.4.6-.6 1-.4l7.6 3c1.1.4 2.3-.1 2.7-1.2.1-.2.1-.5.1-.8V3.6c0-1.1-.9-2.1-2.1-2.1-.3 0-.5 0-.8.1l-7.6 3c-.4.2-.8 0-1-.4-.2-.4 0-.8.4-1l7.6-3c1.8-.7 3.9.2 4.6 2 .2.4.3.9.3 1.3V10c.1 2-1.5 3.6-3.5 3.6z"/>
                            <path id="Path_220" fill="#526bb0" d="M3.6 13.6C1.6 13.6 0 12 0 10V3.6C0 1.6 1.6 0 3.6 0c.5 0 .9.1 1.4.2l7.6 3c.4.2.6.6.4 1-.2.4-.6.6-1 .4l-7.6-3c-1.1-.4-2.3.1-2.7 1.2-.1.3-.1.5-.1.8V10c0 1.1.9 2.1 2.1 2.1.3 0 .5 0 .8-.1l7.6-3c.4-.2.8 0 1 .4.2.4 0 .8-.4 1l-7.6 3c-.6.1-1 .2-1.5.2z"/>
                          </g>
                        </g>
                        <g id="baby" transform="translate(1129.115 6074.002)">
                          <g id="Group_309" transform="translate(0 10.563)">
                            <path id="Path_221" fill="#526bb0" d="M24.9 38.2c-9.3 0-17.4-6.1-19.6-14.6-3-.1-5.4-2.5-5.3-5.5.1-2.9 2.5-5.3 5.4-5.3h.5C9 4.9 16.6-.1 24.9 0c8.4-.1 16 4.9 19 12.8h.5c3 0 5.4 2.4 5.4 5.4 0 2.9-2.4 5.4-5.3 5.4-2.2 8.5-10.3 14.6-19.6 14.6zM5.5 14.3c-2.2 0-3.9 1.7-3.9 3.9s1.7 3.9 3.9 3.9H6c.4 0 .7.2.7.6 1.8 8.1 9.5 14 18.2 14s16.5-5.9 18.2-14c.1-.3.4-.6.7-.6h.5c2.2 0 3.9-1.8 3.9-3.9 0-2.2-1.7-3.9-3.9-3.9h-1c-.3 0-.6-.2-.7-.5C40 6.3 32.9 1.4 24.9 1.5 17 1.4 9.9 6.3 7.2 13.8c-.1.3-.4.5-.7.5h-1z"/>
                            <g id="Group_307" transform="translate(29.387 19.268)">
                              <ellipse id="Ellipse_37" fill="#526bb0" cx="1.9" cy="1.8" rx="1.8" ry="1.8"/>
                            </g>
                            <g id="Group_308" transform="translate(17.442 19.268)">
                              <ellipse id="Ellipse_38" fill="#526bb0" cx="1.9" cy="1.8" rx="1.8" ry="1.8"/>
                            </g>
                            <path id="Path_222" fill="#526bb0" d="M24.9 30.9c-1.9 0-3.7-.5-5.3-1.5l-.3-.2c-.4-.2-.5-.7-.2-1 .2-.4.7-.5 1-.2l.3.2c2.8 1.7 6.3 1.7 9.1 0l.3-.2c.4-.2.8-.1 1 .2s.1.8-.2 1l-.3.2c-1.6 1-3.5 1.5-5.4 1.5z"/>
                          </g>
                          <path id="Path_223" fill="#526bb0" d="M26.6 12.2c-3.7 0-6.7-3-6.7-6.7 0-3 2.5-5.5 5.5-5.5C27.9 0 30 2 30 4.5c0 2.1-1.7 3.8-3.8 3.8-1.8 0-3.2-1.4-3.2-3.2 0-.4.3-.8.8-.8.4 0 .8.3.8.8 0 .9.7 1.7 1.7 1.7 1.3 0 2.3-1 2.3-2.3 0-1.7-1.4-3-3-3-2.2 0-4 1.8-4 4 0 2.9 2.3 5.2 5.2 5.2.4 0 .8.3.8.8-.2.3-.6.7-1 .7z"/>
                        </g>
                      </g>
                    </svg>