<svg version="1.1" id="Livello_1" xmlns="http://www.w3.org/2000/svg" xmlns:xlink="http://www.w3.org/1999/xlink" x="0px" y="0px" viewBox="0 0 183.6 45.4" style="enable-background:new 0 0 183.6 45.4;" xml:space="preserve">
   <style type="text/css">
	.st6{fill:#fff;}
</style>
<g>
	<g>
		<path class="st6" d="M59.8,0.6c0.1,0,0.3,0,0.5,0.2c0.1,0.1,0.3,0.3,0.3,0.6l-0.1,0.4L54.9,23c1.3-1.8,2.5-3.2,3.5-4.1&#10;&#9;&#9;&#9;c2.2-2.1,4.6-3.2,6.9-3.2c2.3,0,4.1,0.8,5.5,2.3c1.4,1.5,2.1,3.4,2.1,5.7c0,5.1-2.2,9.9-6.6,14.4c-4.2,4.3-8.7,6.5-13.2,6.5l0,0&#10;&#9;&#9;&#9;c-7.1,0.3-8.6-1.9-8.3-3.6L53.8,7c0.1-0.4,1.6-5.9,1.6-5.9L59.8,0.6z M63.1,19.5c-3,0-5.9,2.8-8.7,8.4c-2.5,4.9-3.7,9-3.7,12.3&#10;&#9;&#9;&#9;c0,0.7,0.2,1.2,0.6,1.6c0.4,0.4,1.1,0.6,2.1,0.6c3.4,0,6.6-2.3,9.5-6.8c2.7-4.1,4.1-7.9,4.1-11.3c0-1.5-0.4-2.7-1.1-3.5&#10;&#9;&#9;&#9;C65.1,19.9,64.2,19.5,63.1,19.5L63.1,19.5z"/>
		<path class="st6" d="M95.8,36.9c-2.1,2.4-3.4,3.7-4.5,4.5c-3.2,2.2-6.4,3.3-9.7,3.3l0,0c-2.3,0-4.4-0.8-6.2-2.4&#10;&#9;&#9;&#9;c-1.8-1.6-2.7-3.9-2.8-6.8c-0.1-4.6,2-9,6.2-13.3c4.2-4.3,8.6-6.4,13.1-6.4c1.7,0,3.1,0.4,4.2,1.2c1.1,0.8,1.6,2,1.7,3.5&#10;&#9;&#9;&#9;c0.1,3-1.7,5.6-5.4,7.8c-3.6,2.1-7.4,3.4-11.3,3.9l-1.6,0.2c-0.2,0.7-0.4,1.3-0.5,1.7c-0.1,0.5-0.1,1.1-0.1,1.8&#10;&#9;&#9;&#9;c0,1.7,0.6,3,1.8,3.9c1.2,1,2.5,1.4,4.1,1.4c1.5,0,3.1-0.5,4.8-1.5c1.3-0.7,4.2-3.2,7.4-6.5L95.8,36.9z M90.8,18&#10;&#9;&#9;&#9;c-1.3,0-2.6,0.5-3.8,1.6c-1.3,1.1-2.4,2.4-3.4,3.7c-1.1,1.6-1.9,3.2-2.5,4.7c-0.3,0.7-0.6,1.4-0.9,2.2c3.7-0.6,6.7-1.9,9-3.9&#10;&#9;&#9;&#9;c2.4-2.1,3.6-4.1,3.6-6.2c0-0.7-0.2-1.2-0.5-1.6C91.9,18.2,91.4,18,90.8,18L90.8,18z"/>
		<g>
			<path class="st6" d="M38.9,14.5c1,0,1.9-0.3,2.6-1c0.7-0.7,1.1-1.5,1.1-2.5c0-1-0.3-1.8-1-2.5c-0.7-0.7-1.6-1-2.6-1&#10;&#9;&#9;&#9;&#9;c-1,0-1.9,0.3-2.6,1c-0.7,0.7-1.1,1.5-1.1,2.5c0,1,0.3,1.8,1,2.5C37,14.1,37.9,14.5,38.9,14.5z"/>
			<path class="st6" d="M45.3,34.4c-2.2,2.4-4,4.1-5.5,4.9c-1.7,0.9-3.3,1.3-4.6,1.3c-0.6,0-1.1-0.1-1.4-0.3&#10;&#9;&#9;&#9;&#9;c-0.4-0.4-0.4-0.9-0.4-1.3c0.1-0.6,0.1-0.5,0.5-1.8l7-20.3c0.1-0.2,0-0.5-0.3-0.6l-0.2-0.1h-0.1l-5.5,0.6c0,0-1.7,4.8-1.8,4.9&#10;&#9;&#9;&#9;&#9;l-5.1,15c-0.3,0.8-0.4,1.5-0.6,1.9c-0.1,0.4-0.2,1-0.2,1.5c0,1,0.3,1.9,1,2.7c0.5,0.6,1.6,1.2,2.6,1.5l0,0c0.1,0,0.9,0.1,0.9,0.1&#10;&#9;&#9;&#9;&#9;c0.2,0,0.5,0,0.7,0c2.9,0,5.8-1.1,8.7-3.4c0.8-0.6,1.5-1.4,3-3L45.3,34.4z"/>
		</g>
		<path class="st6" d="M108.5,15.7c0.1,0,0.3,0,0.4,0c0.2,0,0.5,0.1,0.6,0.5l0,0.1l0,0.1l-3.4,10.8c2-2.8,3.7-5,5.1-6.5&#10;&#9;&#9;&#9;c3.1-3.3,5.9-5,8.4-5c1,0,1.8,0.2,2.6,0.6c1.4,0.7,2.1,2,2.1,3.9c0,0.5-0.1,1-0.2,1.6c-0.1,0.5-0.2,1.1-0.4,1.7L119.5,38&#10;&#9;&#9;&#9;c-0.1,0.3-0.2,0.7-0.3,1.1c-0.1,0.4-0.1,0.7-0.1,0.9c0,0.2,0.1,0.5,0.2,0.6c0.1,0.1,0.1,0.2,0.4,0.2c0.4,0,0.9-0.3,1.6-0.8&#10;&#9;&#9;&#9;c0.6-0.6,2.8-3.2,4.4-5.2l0.5-0.6l-0.1,1.3l0,1.6l0,0.1l-0.3,0.5c-1.7,2.3-2.8,3.4-3.8,4.3c-1.7,1.7-3.4,2.5-5.1,2.5l0,0&#10;&#9;&#9;&#9;c-0.8,0-1.5-0.3-2.2-0.7c-0.7-0.5-1.1-1.4-1.1-2.8c0-0.4,0-0.7,0.1-1.1c0.1-0.4,0.1-0.8,0.2-1.1l4-14.7c0.2-0.8,0.3-1.4,0.4-1.9&#10;&#9;&#9;&#9;c0.1-0.5,0.1-0.8,0.1-1.1c0-0.4-0.1-0.8-0.3-1.1c-0.2-0.2-0.5-0.4-1-0.4c-1.5,0-3.4,1.3-5.7,4c-1.4,1.6-2.8,3.6-4.3,5.8&#10;&#9;&#9;&#9;c-1.1,1.7-1.9,3.4-2.5,5.1c-0.6,1.7-1.6,4.7-3,9.1l-0.1,0.2h-0.3h-4.8H96l0.1-0.4l5.3-18.7c0.5-1.6,0.7-2.5,0.8-2.9&#10;&#9;&#9;&#9;c0-0.1,0.2-0.7,0.3-1.3c0.2-0.8,0.5-2,0.5-2.2l0.5-2.2L108.5,15.7z"/>
		<path class="st6" d="M155.6,38.9c-1.3,1.5-2.8,3.1-4.2,4.1c-1.3,1-2.7,1.5-4,1.5c-0.9,0-1.6-0.3-2.1-0.9c-0.5-0.6-0.7-1.3-0.7-2.2&#10;&#9;&#9;&#9;c0-0.8,0.1-1.8,0.4-3.2c0.1-0.5,0.2-1,0.3-1.5c-0.2,0.3-0.5,0.6-0.8,1c-0.9,1.2-2,2.3-3.3,3.4c-1.5,1.3-3,2.3-4.4,2.9&#10;&#9;&#9;&#9;c-1.1,0.4-2.2,0.6-3.2,0.6l0,0c-1.8,0-3.4-0.7-4.8-2.1c-1.4-1.4-2.1-3.4-2.1-6c0-4.3,2-8.9,6-13.5c4.1-4.9,8.4-7.3,12.9-7.3&#10;&#9;&#9;&#9;c1.7,0,3.1,0.4,4.1,1.3c0.4,0.4,0.7,0.8,1,1.4L151,17c0.1-0.3,0.2-0.5,0.3-0.6c0.2-0.2,0.5-0.3,0.7-0.3l3.6-0.4c0,0,0,0,0,0&#10;&#9;&#9;&#9;c0.4,0,0.6,0.1,0.7,0.3c0.1,0.2,0.1,0.3,0,0.6c-0.1,0.3-0.2,0.5-0.2,0.6l-0.2,0.7l-3.1,10.8c-0.7,2.4-1.2,4.4-1.7,6.1&#10;&#9;&#9;&#9;c-0.9,3.8-1.1,4.9-1.1,5.2c0,0.2,0,0.3,0.1,0.4c0.1,0.1,0.2,0.1,0.3,0.1c0.1,0,0.3,0,0.5-0.1c0.2-0.1,0.5-0.3,0.8-0.5l0.5-0.4&#10;&#9;&#9;&#9;c0.6-0.5,3.3-3,4.8-4.6L155.6,38.9z M145.8,17.7c-3.3,0-6.3,2.5-9.2,7.4c-2.5,4.4-3.8,8.2-3.8,11.3c0,1.5,0.3,2.6,1,3.3&#10;&#9;&#9;&#9;c0.6,0.7,1.4,1,2.4,1c3,0,5.9-2.4,8.7-7.2c2.7-4.4,4.1-8.4,4.1-11.9c0-1.4-0.3-2.4-0.9-3C147.4,18,146.7,17.7,145.8,17.7&#10;&#9;&#9;&#9;L145.8,17.7z"/>
		<path class="st6" d="M180.9,16.7L180.9,16.7C180.9,16.7,180.9,16.7,180.9,16.7c-0.1-0.1-0.1-0.1-0.1-0.1l0,0&#10;&#9;&#9;&#9;c-0.6-0.6-1.5-0.9-2.6-0.9c-2.1,0-4.3,1.2-6.5,3.7c-1.8,2-3.5,4.2-5,6.5l2.6-8.8c0-0.1,0-0.3,0.1-0.5c0-0.2-0.1-0.4-0.2-0.6&#10;&#9;&#9;&#9;c-0.1-0.1-0.3-0.3-0.8-0.3l-4.7,0.7c-0.1,0-0.2,0-0.3,0c0,0-0.9,4-1.2,5.1c-0.1,0.4-0.2,0.8-0.3,1c-0.2,0.8-0.5,1.8-0.8,2.8&#10;&#9;&#9;&#9;l-5.7,18.2l-0.1,0.4h6l0.1-0.2c1-2.9,1.8-5.2,2.5-6.9c1-2.5,1.9-4.6,2.6-6.2c1.3-2.5,2.8-4.9,4.4-7.1c2.1-2.7,3.1-3.2,3.5-3.2&#10;&#9;&#9;&#9;l0.1-0.1c0.1,0,0.1,0.1,0.2,0.2l0.4,0.7c0.2,0.4,0.6,0.7,1,1c0.4,0.3,1,0.4,1.8,0.4c1.1,0,2-0.3,2.7-1c0.6-0.7,1-1.5,1-2.5&#10;&#9;&#9;&#9;C181.8,18.1,181.5,17.4,180.9,16.7z"/>
		<path class="st6" d="M27.3,35.3c-1,1.2-2.2,1.9-2.9,2.4c-1.4,0.9-3.4,1.4-6.2,1.4c-0.3,0-0.6,0-0.9,0l-0.6,0&#10;&#9;&#9;&#9;c-1.4,0-3.5-0.1-5.2-0.1c-1,0-1.7,0-2.2,0.1C10,36.9,20.9,3,21.3,1.8c0.3-0.8-0.4-1-0.6-1l-5,0.5c0,0-1.1,0-1.4,1&#10;&#9;&#9;&#9;c-1.8,6.1-12.8,40.3-12.4,41C2.1,43.9,2.3,44,3.1,44c0.3,0,0.6,0,0.8,0l14.9,0c3-0.1,4.6-1.3,7.1-4.7L27.3,35.3z"/>
	</g>
	<g>
		<path class="st6" d="M170.2,34.8c1.4,0,2.6,1.1,2.6,2.6c0,1.5-1.2,2.7-2.6,2.7c-1.4,0-2.6-1.1-2.6-2.7&#10;&#9;&#9;&#9;C167.6,36,168.8,34.8,170.2,34.8z M170.2,39.8c1.2,0,2.1-1,2.1-2.3c0-1.3-0.9-2.3-2.1-2.3c-1.2,0-2.2,1-2.2,2.3&#10;&#9;&#9;&#9;C168.1,38.8,169,39.8,170.2,39.8z M169.2,35.9h1.2c0.7,0,1.1,0.3,1.1,0.9c0,0.6-0.3,0.8-0.8,0.8l0.9,1.4H171l-0.8-1.3h-0.5V39&#10;&#9;&#9;&#9;h-0.5V35.9z M169.7,37.3h0.5c0.4,0,0.8,0,0.8-0.5c0-0.4-0.3-0.5-0.7-0.5h-0.6V37.3z"/>
	</g>
</g>
</svg>