<svg version="1.1" id="Livello_1" xmlns="http://www.w3.org/2000/svg" xmlns:xlink="http://www.w3.org/1999/xlink" height="35px" viewBox="0 0 44.8 48.7" style="enable-background:new 0 0 44.8 48.7;" xml:space="preserve">
<style type="text/css">
	.st0{fill:#526BB0;}
</style>
<g id="clean" transform="translate(0 -8.6)">
	<g id="Group_311" transform="translate(0 8.601)">
		<g id="Group_310" transform="translate(0 0)">
			<path id="Path_224" class="st0" d="M43.1,30.2c-0.2-0.2-0.3-0.3-0.5-0.3c-1.2,0-11.2-0.3-11.2-12c0-0.3-0.3-0.7-0.7-0.7&#10;&#9;&#9;&#9;&#9;S30,17.5,30,17.9c0,11.5-10,12-11,12c-0.2,0-0.3,0-0.3,0.2c-0.2,0-0.2,0.2-0.2,0.2c-0.2,0.2-0.2,0.5,0,0.7&#10;&#9;&#9;&#9;&#9;c0.2,0.2,0.3,0.3,0.7,0.3l0,0c1.2,0,11,0.3,11,12c0,0.3,0.3,0.7,0.7,0.7s0.7-0.3,0.7-0.7c0-11.5,9.8-12,11-12&#10;&#9;&#9;&#9;&#9;c0.2,0,0.5-0.2,0.7-0.3C43.3,30.8,43.3,30.4,43.1,30.2z M30.7,38.4c-1.2-3.7-4.1-6.6-7.8-7.8c3.7-1,6.8-4.1,7.8-7.8&#10;&#9;&#9;&#9;&#9;c1.2,3.7,4.1,6.6,7.8,7.8C34.8,31.6,31.9,34.5,30.7,38.4z"/>
			<path id="Path_225" class="st0" d="M21.9,11.4c0.3,0,0.7-0.3,0.7-0.7l0,0c0-0.3-0.3-0.7-0.7-0.7c-3.2,0-5.9-2.5-6.1-5.8&#10;&#9;&#9;&#9;&#9;c0-0.2,0-0.5,0-0.7c0-0.3-0.2-0.7-0.7-0.7c-0.3,0-0.5,0.3-0.5,0.7l0,0c0.2,3.2-2.2,6.1-5.4,6.4c-0.2,0-0.5,0-0.7,0l0,0&#10;&#9;&#9;&#9;&#9;c-0.3,0-0.7,0.3-0.7,0.7c0,0.3,0.3,0.7,0.7,0.7c3.2,0,5.9,2.5,6.1,5.8c0,0.2,0,0.5,0,0.7c0,0.3,0.3,0.7,0.7,0.7&#10;&#9;&#9;&#9;&#9;c0.3,0,0.5-0.2,0.7-0.5l0,0c-0.5-3.2,1.9-6.3,5.1-6.4C21.4,11.4,21.5,11.4,21.9,11.4L21.9,11.4L21.9,11.4z M15.1,14.3&#10;&#9;&#9;&#9;&#9;c-0.7-1.5-2-2.9-3.6-3.6c1.7-0.7,2.9-1.9,3.6-3.6c0.7,1.7,2,2.9,3.6,3.6C17.1,11.4,15.8,12.8,15.1,14.3z"/>
			<path id="Path_226" class="st0" d="M16.1,38.6c-3.2,0-5.9-2.5-6.1-5.8c0-0.2,0-0.5,0-0.7c0-0.3-0.3-0.7-0.7-0.7s-0.7,0.3-0.7,0.7&#10;&#9;&#9;&#9;&#9;c0.3,3.2-2,6.1-5.4,6.4c-0.2,0-0.5,0-0.7,0l0,0c-0.2,0-0.5,0.3-0.5,0.7s0.3,0.7,0.7,0.7c3.2,0,5.9,2.5,6.1,5.8c0,0.2,0,0.5,0,0.7&#10;&#9;&#9;&#9;&#9;c0,0.3,0.3,0.7,0.7,0.7c0.3,0.2,0.7-0.2,0.7-0.7c-0.3-3.2,2-6.1,5.4-6.4c0.2,0,0.5,0,0.7,0l0,0c0.3,0,0.7-0.3,0.7-0.7l0,0&#10;&#9;&#9;&#9;&#9;C16.8,38.9,16.5,38.6,16.1,38.6z M9.3,42.8c-0.7-1.5-2-2.9-3.6-3.6c1.7-0.7,2.9-1.9,3.6-3.6c0.7,1.7,2,2.9,3.6,3.6&#10;&#9;&#9;&#9;&#9;C11.4,39.9,10,41.1,9.3,42.8z"/>
		</g>
	</g>
</g>
</svg>