<svg class="js-shape-arrow" xmlns="http://www.w3.org/2000/svg" width="346" height="111" viewBox="0 0 346 111" style="opacity: 1; transform: matrix(1, 0, 0, 1, 0, 0);">
                      <path fill="#FFF" fill-rule="evenodd" d="M378.7898,228.5997 L381.4428,225.1847 C382.4888,226.4237 383.6558,227.6827 384.7018,228.9217 L382.0488,232.3367 C381.0028,231.0977 379.8358,229.8387 378.7898,228.5997 Z M59.0823,156.0254 C62.0333,154.6514 64.9833,153.2784 67.7893,152.0354 L68.8463,156.3444 C65.9183,157.5684 62.9923,158.7924 60.1623,160.1844 L59.0823,156.0254 Z M76.8123,148.4014 C79.7153,147.3274 82.7633,146.1224 85.7883,145.0674 L86.5793,149.4884 C83.6993,150.4134 80.6513,151.6174 77.7483,152.6914 L76.8123,148.4014 Z M94.6933,142.1824 C97.6933,141.2774 100.6943,140.3724 103.6713,139.6164 L104.2193,143.9984 C101.3643,144.7734 98.3633,145.6784 95.3623,146.5844 L94.6933,142.1824 Z M112.7473,137.2174 C115.7013,136.6124 118.7993,135.8764 121.7763,135.1204 L122.1793,139.6324 C119.2263,140.2384 116.1513,140.8254 113.1743,141.5814 L112.7473,137.2174 Z M130.9523,133.6584 C134.0263,133.0714 137.0773,132.6334 140.1043,132.3464 L140.2653,136.8214 C137.2143,137.2574 134.1643,137.6954 131.2343,138.1514 L130.9523,133.6584 Z M149.2333,131.1844 C152.2603,130.8964 155.3853,130.7784 158.4363,130.3404 L158.3313,134.9264 C155.3273,135.0644 152.3003,135.3524 149.2733,135.6394 L149.2333,131.1844 Z M167.5433,130.0954 C170.6443,130.1274 173.6483,129.9894 176.6273,130.0014 L176.4013,134.5674 C173.4213,134.5554 170.3203,134.5244 167.3173,134.6624 L167.5433,130.0954 Z M185.9063,130.2434 C188.8623,130.4044 191.9393,130.5854 195.0173,130.7654 L194.5483,135.2944 C191.5923,135.1314 188.5153,134.9514 185.5593,134.7904 L185.9063,130.2434 Z M203.9353,131.7174 C206.9883,132.0474 210.0423,132.3784 212.9513,132.8384 L212.2403,137.3284 C209.3313,136.8684 206.2773,136.5384 203.3453,136.2264 L203.9353,131.7174 Z M221.2073,138.7494 L221.9193,134.2584 C224.9493,134.7394 227.8333,135.3494 230.8393,135.9794 L230.0073,140.4494 C227.1233,139.8384 224.1163,139.2104 221.2073,138.7494 Z M238.8803,142.4684 L239.8343,138.0174 C242.8403,138.6464 245.7993,139.5754 248.6603,140.3364 L247.5853,144.7674 C244.7243,144.0074 241.7423,143.2284 238.8803,142.4684 Z M256.2193,147.5154 L257.5363,143.1224 C260.3743,144.0324 263.3323,144.9614 266.1463,146.0194 L264.8293,150.4134 C261.8943,149.3354 259.0573,148.4254 256.2193,147.5154 Z M273.2703,153.5914 L274.5643,149.3474 C277.4993,150.4254 280.2893,151.6344 283.0793,152.8434 L281.6653,157.0684 C278.8743,155.8594 276.0843,154.6504 273.2703,153.5914 Z M289.8903,160.8264 L291.4253,156.6204 C294.2153,157.8294 296.9583,159.3384 299.7243,160.6964 L298.0683,164.8824 C295.4223,163.5434 292.6563,162.1844 289.8903,160.8264 Z M306.0533,169.3694 L307.6873,165.3324 C310.4293,166.8404 313.1723,168.3484 315.7703,169.9874 L314.0153,174.0044 C311.3943,172.5154 308.6753,170.8584 306.0533,169.3694 Z M321.8093,178.9214 L323.6843,174.9224 C326.2823,176.5614 328.8563,178.3494 331.4303,180.1374 L329.4333,184.1174 C326.9813,182.3484 324.4073,180.5594 321.8093,178.9214 Z M337.1323,189.6314 L339.2493,185.6714 C341.8003,187.6104 344.3273,189.6984 346.7563,191.6164 L344.5403,195.4084 C342.1123,193.4894 339.5613,191.5504 337.1323,189.6314 Z M351.6363,201.5934 L353.8513,197.8024 C356.2333,200.0214 358.7603,202.1084 361.0213,204.3074 L358.7073,207.9294 C356.4233,205.8804 354.0413,203.6634 351.6363,201.5934 Z M365.6113,214.5464 L368.1423,211.1124 C370.4033,213.3104 372.6403,215.6594 374.8763,218.0074 L372.3453,221.4424 C370.1083,219.0934 367.8713,216.7454 365.6113,214.5464 Z M46,162.544635 L47.3228,166.742 C48.7978,166.056 50.1758,165.2 51.6508,164.513 L50.4498,160.334 C48.9748,161.022 47.4988,161.708 45.9998,162.544 L46,160.334 L51.6508,160.334 L51.6508,166.742 L46,166.742 L46,162.544635 Z M376.7087,178.9737 L375.7127,173.6167 L379.3277,172.3427 L380.3247,177.6997 L376.7087,178.9737 Z M378.7273,189.7764 L382.2843,188.4994 L384.2843,199.4004 L380.7273,200.6784 L378.7273,189.7764 Z M382.7283,211.5804 L386.2853,210.3024 L388.2853,221.2054 L384.7283,222.4824 L382.7283,211.5804 Z M385.3054,235.3077 L387.1474,235.4457 L386.7514,233.2357 L390.4294,231.9767 L392.0344,240.6687 L384.7404,239.6667 L385.3054,235.3077 Z M348.8298,230.296 L357.9428,231.586 L357.3528,236.095 L348.2398,234.806 L348.8298,230.296 Z M367.0798,232.727 L376.1928,234.017 L375.6028,238.525 L366.4898,237.235 L367.0798,232.727 Z M334.5417,232.8897 L335.1867,228.3907 L339.8077,229.0167 L339.1627,233.5157 L334.5417,232.8897 Z" transform="translate(-46 -130)"/>
                    </svg>