<svg width="24" height="24" viewBox="0 0 24 24" fill="none" xmlns="http://www.w3.org/2000/svg">
<g clip-path="url(#clip0_293_32)">
<path d="M12 18.1653C8.59957 18.1653 5.8335 15.3993 5.8335 12.0005C5.8335 8.60164 8.59957 5.83398 12 5.83398C15.4004 5.83398 18.1649 8.60006 18.1649 12.0005C18.1649 15.4008 15.3988 18.1653 12 18.1653ZM12 7.88684C9.73251 7.88684 7.88636 9.73142 7.88636 12.0005C7.88636 14.2695 9.73093 16.1141 12 16.1141C14.269 16.1141 16.1136 14.2695 16.1136 12.0005C16.1136 9.73142 14.269 7.88684 12 7.88684Z" fill="white"/>
<path d="M17.7341 24H6.2643C2.81026 24 0 21.1897 0 17.7341V6.2643C0 2.81026 2.81026 0 6.2643 0H17.7341C21.1882 0 23.9984 2.81026 23.9984 6.2643V17.7341C23.9984 21.1882 21.1882 23.9984 17.7341 23.9984V24ZM6.2643 2.05286C3.94162 2.05286 2.05128 3.94319 2.05128 6.26588V17.7341C2.05128 20.0568 3.94162 21.9471 6.2643 21.9471H17.7341C20.0568 21.9471 21.9471 20.0568 21.9471 17.7341V6.2643C21.9471 3.94162 20.0568 2.05128 17.7341 2.05128H6.2643V2.05286Z" fill="white"/>
<path d="M18.3385 6.97455C19.121 6.97455 19.7554 6.34015 19.7554 5.55759C19.7554 4.77502 19.121 4.14062 18.3385 4.14062C17.5559 4.14062 16.9215 4.77502 16.9215 5.55759C16.9215 6.34015 17.5559 6.97455 18.3385 6.97455Z" fill="white"/>
</g>
<defs>
<clipPath id="clip0_293_32">
<rect width="24" height="24" fill="white"/>
</clipPath>
</defs>
</svg>
