<svg xmlns="http://www.w3.org/2000/svg" viewBox="0 0 1203.3 1065.4">
                <g transform="translate(.004 -.002)">
                  
                  <linearGradient id="aba" gradientUnits="userSpaceOnUse" x1="310.997" y1="944.252">
                    <stop offset="0" stop-color="#526bb0"/>
                    <stop offset=".5" stop-color="#cbd5ee"/>
                    <stop offset="1" stop-color="#fff"/>
                  </linearGradient>
                  <path class="js-product-preview-bubble" d="M906.0104417373221 134.70253702640193 C 976.2128249738945 189.30787155532082 1011.4467911892657 310.4841430813334 1035.0557859537523 403.14684423687703 1058.664780718239 495.80954539242066 1077.8943309968722 607.453963204438 1047.6644103242422 690.6787439596637 1017.4344896516122 773.9035247148895 930.5754282870203 854.1346850395312 853.6762619179723 902.4955287682315 776.7770955489243 950.8563724969317 674.9051933546694 983.0442254336307 586.269412109954 980.843806331865 497.63363086523856 978.6433872300994 394.22577515903896 942.666504506228 321.8615744496796 889.2930141576376 249.49737374032026 835.9195238090472 180.41222628104802 747.2912723906506 152.08420785379795 660.6028642403227 123.75618942654789 573.9144560899947 119.46796516064536 452.9355833479107 151.89346388617923 369.16256525566973 184.31896261171312 285.38954716342874 269.645863098978 206.90604371892778 346.6372002070012 157.96475568687677 423.62853731502435 109.02346765482577 520.6126129459313 79.39187350677612 613.8414865343182 75.51483706336364 707.070360122705 71.63780061995116 835.8080585007498 80.09720249748304 906.0104417373221 134.70253702640193z" fill="url(#aba)"/>
                </g>
                <g transform="translate(.004 -.002)">
                  
                  <linearGradient id="bab" gradientUnits="userSpaceOnUse" x2="312.06" y2="942.165">
                    <stop offset="0" stop-color="#526bb0"/>
                    <stop offset=".5" stop-color="#cbd5ee"/>
                    <stop offset="1" stop-color="#fff"/>
                  </linearGradient>
                  <path class="js-product-preview-bubble" d="M1007.4571443226511 244.6999370540746 C 1057.8647858621189 317.47760846482333 1052.0610757479576 440.6139440347018 1050.0992131475236 537.8598483228918 1048.1373505470897 635.1057526110819 1047.658452312913 754.1096416162678 995.6859687200474 828.1753627832151 943.7134851271818 902.2410839501623 829.3410142666868 958.9717915393059 738.2643115903302 982.2541753245752 647.1876089139736 1005.5365591098445 540.2668638315342 995.6340590624504 449.2257526619079 967.8696654948307 358.1846414922816 940.1052719272109 241.95042705680515 889.9568570657758 192.0176445725725 815.6678139188566 142.08486208833983 741.3787707719374 142.67163183916594 615.7440812139426 149.629057756512 522.1354066133156 156.58648367385805 428.5267320126885 180.74397679042647 324.80828043958024 233.7622000766488 254.01576631509406 286.78042336287115 183.22325219060787 382.089870168168 122.85064627584754 467.738397473846 97.38032186639843 553.3869247795241 71.90999745694933 657.7002394359162 76.64055066045344 747.653363910717 101.19381985839946 837.6064883855178 125.74708905634549 957.0495027831832 171.9222656433259 1007.4571443226511 244.6999370540746z" fill="url(#bab)"/>
                </g>
              </svg>