<?xml version="1.0" standalone="no"?>
<!DOCTYPE svg PUBLIC "-//W3C//DTD SVG 20010904//EN"
 "http://www.w3.org/TR/2001/REC-SVG-20010904/DTD/svg10.dtd">
<svg version="1.0" xmlns="http://www.w3.org/2000/svg"
 width="180.000000pt" height="180.000000pt" viewBox="0 0 180.000000 180.000000"
 preserveAspectRatio="xMidYMid meet">
<metadata>
Created by potrace 1.14, written by Peter Selinger 2001-2017
</metadata>
<g transform="translate(0.000000,180.000000) scale(0.100000,-0.100000)"
fill="#000000" stroke="none">
<path d="M1437 1774 c-1 -1 -31 -5 -67 -9 -75 -8 -105 -13 -105 -15 0 -1 -13
-4 -30 -6 -16 -1 -46 -6 -65 -9 -19 -3 -48 -7 -65 -9 -16 -3 -46 -7 -66 -11
-20 -3 -51 -7 -70 -9 -19 -2 -50 -7 -69 -11 -19 -5 -50 -8 -67 -9 -18 -1 -33
-5 -33 -9 0 -5 -4 -6 -8 -3 -6 4 -68 -4 -222 -27 -8 -2 -19 -5 -25 -8 -5 -4
-27 -7 -47 -7 -21 0 -39 -1 -40 -2 -2 -1 -14 -4 -28 -5 -14 -2 -45 -7 -70 -11
-25 -4 -53 -7 -62 -8 -10 0 -18 -3 -18 -6 0 -4 -19 -7 -42 -8 -79 -4 -98 -6
-98 -12 0 -3 -17 -6 -38 -7 -57 -3 -75 -32 -68 -108 6 -57 8 -73 19 -155 3
-19 8 -62 12 -95 4 -33 9 -71 11 -85 6 -32 19 -123 29 -205 8 -66 14 -100 15
-100 1 0 4 -18 6 -40 10 -81 12 -100 14 -100 1 0 3 -16 5 -35 2 -19 4 -35 5
-35 1 0 3 -16 5 -35 7 -70 25 -191 31 -210 2 -9 6 -40 9 -70 2 -30 7 -66 10
-80 6 -28 17 -99 18 -117 0 -7 4 -13 9 -13 5 0 6 -4 3 -10 -3 -5 -1 -10 5 -10
6 0 9 -4 6 -9 -11 -17 104 -37 129 -22 6 3 33 7 60 8 28 1 61 4 75 7 14 2 48
7 75 10 28 4 62 9 77 12 45 9 114 19 193 28 22 3 51 8 65 11 31 7 127 19 158
19 12 1 22 3 22 6 0 3 8 6 18 6 9 0 40 4 67 9 28 4 60 8 73 8 12 1 22 3 22 7
0 3 15 6 33 6 45 2 172 20 172 24 0 1 22 4 48 6 27 2 57 9 68 14 11 7 19 7 19
1 0 -9 19 -4 93 22 36 13 55 51 52 107 -1 25 -3 45 -5 45 -3 0 -8 35 -15 95
-8 72 -12 106 -20 155 -3 22 -8 51 -10 65 -2 14 -9 60 -15 102 -6 43 -13 90
-15 105 -2 16 -4 28 -5 28 -2 0 -5 21 -14 95 -3 25 -8 63 -11 85 -4 22 -8 51
-10 65 -6 42 -14 93 -20 130 -3 19 -8 49 -9 65 -2 17 -5 30 -6 30 -1 0 -3 18
-5 40 -3 44 -13 94 -21 107 -3 4 0 8 7 8 8 0 6 7 -5 19 -10 11 -13 20 -7 22
20 7 -23 139 -45 139 -8 0 -14 4 -14 9 0 7 -76 21 -83 15z"/>
</g>
</svg>
